<mxfile host="Electron" agent="Mozilla/5.0 (Windows NT 10.0; Win64; x64) AppleWebKit/537.36 (KHTML, like Gecko) draw.io/28.1.2 Chrome/138.0.7204.243 Electron/37.4.0 Safari/537.36" version="28.1.2">
  <diagram name="Seite-1" id="pQtrqi21ILiCxyklTSHn">
    <mxGraphModel dx="1090" dy="825" grid="1" gridSize="10" guides="1" tooltips="1" connect="1" arrows="1" fold="1" page="1" pageScale="1" pageWidth="827" pageHeight="1169" math="0" shadow="0">
      <root>
        <mxCell id="0" />
        <mxCell id="1" parent="0" />
        <mxCell id="Ad5Kq56dIGJzCfY_8uFe-9" value="" style="edgeStyle=orthogonalEdgeStyle;rounded=0;orthogonalLoop=1;jettySize=auto;html=1;strokeWidth=3;" edge="1" parent="1" source="Ad5Kq56dIGJzCfY_8uFe-1" target="Ad5Kq56dIGJzCfY_8uFe-2">
          <mxGeometry relative="1" as="geometry" />
        </mxCell>
        <mxCell id="Ad5Kq56dIGJzCfY_8uFe-1" value="Funktion der Sicherungsschicht im Zusammenhang der Bitübertragungs-und Vermittlungsschicht bei einem ankommenden Datenpaket:" style="rounded=1;whiteSpace=wrap;html=1;" vertex="1" parent="1">
          <mxGeometry x="170" y="60" width="440" height="110" as="geometry" />
        </mxCell>
        <mxCell id="Ad5Kq56dIGJzCfY_8uFe-4" value="" style="edgeStyle=orthogonalEdgeStyle;rounded=0;orthogonalLoop=1;jettySize=auto;html=1;strokeWidth=3;" edge="1" parent="1" source="Ad5Kq56dIGJzCfY_8uFe-2" target="Ad5Kq56dIGJzCfY_8uFe-3">
          <mxGeometry relative="1" as="geometry" />
        </mxCell>
        <mxCell id="Ad5Kq56dIGJzCfY_8uFe-2" value="Erkennen der Zieladdresse mittels Ziel-MAC-Addresse" style="rounded=0;whiteSpace=wrap;html=1;strokeWidth=3;" vertex="1" parent="1">
          <mxGeometry x="210" y="210" width="360" height="90" as="geometry" />
        </mxCell>
        <mxCell id="Ad5Kq56dIGJzCfY_8uFe-6" value="" style="edgeStyle=orthogonalEdgeStyle;rounded=0;orthogonalLoop=1;jettySize=auto;html=1;strokeWidth=3;" edge="1" parent="1" source="Ad5Kq56dIGJzCfY_8uFe-3" target="Ad5Kq56dIGJzCfY_8uFe-5">
          <mxGeometry relative="1" as="geometry" />
        </mxCell>
        <mxCell id="Ad5Kq56dIGJzCfY_8uFe-3" value="Entnahme des Datenrahmens (Zugriffsverfahren) vom Übertragungsmedium" style="whiteSpace=wrap;html=1;rounded=0;strokeWidth=3;" vertex="1" parent="1">
          <mxGeometry x="210" y="370" width="360" height="85" as="geometry" />
        </mxCell>
        <mxCell id="Ad5Kq56dIGJzCfY_8uFe-8" value="" style="edgeStyle=orthogonalEdgeStyle;rounded=0;orthogonalLoop=1;jettySize=auto;html=1;strokeWidth=3;" edge="1" parent="1" source="Ad5Kq56dIGJzCfY_8uFe-5" target="Ad5Kq56dIGJzCfY_8uFe-7">
          <mxGeometry relative="1" as="geometry" />
        </mxCell>
        <mxCell id="Ad5Kq56dIGJzCfY_8uFe-5" value="Überprüfen der Korrektheit des Datenrahmens mittels CRC" style="whiteSpace=wrap;html=1;rounded=0;strokeWidth=3;" vertex="1" parent="1">
          <mxGeometry x="210" y="530" width="360" height="87.5" as="geometry" />
        </mxCell>
        <mxCell id="Ad5Kq56dIGJzCfY_8uFe-7" value="Mittelung mit welchem Protokoll die Daten verarbeitet werden" style="whiteSpace=wrap;html=1;rounded=0;strokeWidth=3;" vertex="1" parent="1">
          <mxGeometry x="210" y="690" width="360" height="86.25" as="geometry" />
        </mxCell>
      </root>
    </mxGraphModel>
  </diagram>
</mxfile>
